<svg width="25" height="26" viewBox="0 0 25 26" fill="none" xmlns="http://www.w3.org/2000/svg">
<path d="M5.23145 12.9256C6.61216 12.9256 7.73145 11.7569 7.73145 10.3154C7.73145 8.87383 6.61216 7.70522 5.23145 7.70522C3.85073 7.70522 2.73145 8.87383 2.73145 10.3154C2.73145 11.7569 3.85073 12.9256 5.23145 12.9256Z" fill="#E69270"/>
<path d="M9.73145 8.74928C11.1122 8.74928 12.2314 7.58067 12.2314 6.13911C12.2314 4.69755 11.1122 3.52894 9.73145 3.52894C8.35073 3.52894 7.23145 4.69755 7.23145 6.13911C7.23145 7.58067 8.35073 8.74928 9.73145 8.74928Z" fill="#E69270"/>
<path d="M15.7314 8.74928C17.1122 8.74928 18.2314 7.58067 18.2314 6.13911C18.2314 4.69755 17.1122 3.52894 15.7314 3.52894C14.3507 3.52894 13.2314 4.69755 13.2314 6.13911C13.2314 7.58067 14.3507 8.74928 15.7314 8.74928Z" fill="#E69270"/>
<path d="M20.2314 12.9256C21.6122 12.9256 22.7314 11.7569 22.7314 10.3154C22.7314 8.87383 21.6122 7.70522 20.2314 7.70522C18.8507 7.70522 17.7314 8.87383 17.7314 10.3154C17.7314 11.7569 18.8507 12.9256 20.2314 12.9256Z" fill="#E69270"/>
<path d="M18.0716 15.9116C17.2016 14.8467 16.4716 13.9383 15.5916 12.8734C15.1316 12.3096 14.5416 11.7458 13.8416 11.4952C13.7316 11.4534 13.6216 11.4221 13.5116 11.4012C13.2616 11.3595 12.9916 11.3595 12.7316 11.3595C12.4716 11.3595 12.2016 11.3595 11.9416 11.4117C11.8316 11.4325 11.7216 11.4639 11.6116 11.5056C10.9116 11.7562 10.3316 12.32 9.86159 12.8838C8.99159 13.9488 8.26159 14.8571 7.38159 15.922C6.07159 17.2898 4.46159 18.8037 4.76159 20.9231C5.05159 21.9881 5.78159 23.0426 7.09159 23.3454C7.82159 23.502 10.1516 22.886 12.6316 22.886H12.8116C15.2916 22.886 17.6216 23.4915 18.3516 23.3454C19.6616 23.0426 20.3916 21.9776 20.6816 20.9231C20.9916 18.7932 19.3816 17.2793 18.0716 15.9116Z" fill="#E69270"/>
</svg>
