<svg width="270" height="66" viewBox="0 0 270 66" fill="none" xmlns="http://www.w3.org/2000/svg">
<path d="M235.25 14.4607V11.5034H244.488C244.575 11.6247 244.662 11.8219 244.749 12.0949C244.837 12.3375 244.88 12.6256 244.88 12.9593C244.88 13.4446 244.764 13.8237 244.532 14.0967C244.299 14.3394 243.965 14.4607 243.529 14.4607H235.25ZM235.86 8.63709V13.9602H232.417V8.4551C232.417 6.66555 232.722 5.22482 233.332 4.13289C233.971 3.01064 234.872 2.19169 236.034 1.67606C237.225 1.1301 238.634 0.857117 240.261 0.857117C241.917 0.857117 243.21 1.0846 244.139 1.53957C245.098 1.99454 245.577 2.55567 245.577 3.22296C245.577 3.5566 245.505 3.85991 245.359 4.13289C245.243 4.40587 245.069 4.66369 244.837 4.90634C244.314 4.60303 243.66 4.36038 242.876 4.17839C242.091 3.96607 241.336 3.85991 240.61 3.85991C238.838 3.85991 237.603 4.23905 236.906 4.99733C236.208 5.75562 235.86 6.96887 235.86 8.63709ZM232.417 11.9584H235.903V31.249C235.758 31.3097 235.54 31.3704 235.25 31.431C234.959 31.522 234.64 31.5675 234.291 31.5675C233.681 31.5675 233.216 31.4462 232.897 31.2035C232.577 30.9306 232.417 30.5059 232.417 29.9296V11.9584Z" fill="#E69270"/>
<path d="M221.514 3.67786C221.514 3.0409 221.732 2.51011 222.168 2.08547C222.603 1.6305 223.141 1.40302 223.78 1.40302C224.448 1.40302 224.986 1.6305 225.392 2.08547C225.799 2.51011 226.002 3.0409 226.002 3.67786C226.002 4.31482 225.799 4.86078 225.392 5.31575C224.986 5.74039 224.448 5.95271 223.78 5.95271C223.141 5.95271 222.603 5.74039 222.168 5.31575C221.732 4.86078 221.514 4.31482 221.514 3.67786ZM222.037 19.3288H225.523V31.249C225.378 31.3096 225.16 31.3703 224.869 31.431C224.579 31.522 224.259 31.5675 223.911 31.5675C223.301 31.5675 222.836 31.4461 222.516 31.2035C222.197 30.9305 222.037 30.5059 222.037 29.9296V19.3288ZM225.523 21.1032H222.037V10.4114C222.182 10.3507 222.4 10.2901 222.69 10.2294C223.01 10.1384 223.344 10.0929 223.693 10.0929C224.303 10.0929 224.753 10.2294 225.044 10.5024C225.363 10.745 225.523 11.1697 225.523 11.7763V21.1032Z" fill="#E69270"/>
<path d="M200.598 15.1886H204.171V30.976L202.516 31.34C201.964 31.34 201.499 31.158 201.121 30.794C200.772 30.3997 200.598 29.9144 200.598 29.3381V15.1886ZM202.516 31.34V28.1552H216.678C216.823 28.2766 216.939 28.4737 217.026 28.7467C217.114 29.0197 217.157 29.323 217.157 29.6566C217.157 30.1723 217.026 30.5817 216.765 30.885C216.504 31.1883 216.155 31.34 215.719 31.34H202.516ZM204.171 17.9184H200.598V3.76889C200.743 3.70822 200.961 3.64756 201.252 3.5869C201.571 3.4959 201.905 3.45041 202.254 3.45041C202.893 3.45041 203.373 3.5869 203.692 3.85988C204.012 4.10253 204.171 4.52717 204.171 5.13379V17.9184Z" fill="#E69270"/>
<path d="M172.199 15.6892C171.676 17.6 171.11 19.5109 170.5 21.4218C169.918 23.3327 169.352 25.1222 168.8 26.7904C168.248 28.4586 167.74 29.8994 167.275 31.1126C167.042 31.2643 166.781 31.3856 166.49 31.4766C166.2 31.5676 165.808 31.6131 165.314 31.6131C164.849 31.6131 164.413 31.5221 164.007 31.3401C163.629 31.1885 163.367 30.9306 163.222 30.5667C162.932 29.96 162.598 29.0804 162.22 27.9278C161.871 26.7753 161.494 25.4558 161.087 23.9696C160.709 22.4834 160.317 20.9517 159.91 19.3744C159.504 17.7669 159.126 16.22 158.777 14.7337C158.458 13.2475 158.182 11.9281 157.949 10.7755C158.153 10.5632 158.4 10.366 158.69 10.1841C159.01 10.0021 159.387 9.91107 159.823 9.91107C160.375 9.91107 160.782 10.0779 161.043 10.4115C161.334 10.7149 161.537 11.2153 161.653 11.9129C161.915 13.1868 162.205 14.6276 162.525 16.2351C162.874 17.8427 163.222 19.4351 163.571 21.0123C163.948 22.5895 164.283 24.0151 164.573 25.289C164.893 26.5326 165.125 27.4577 165.27 28.0643H165.445C165.677 27.3364 166.04 26.1535 166.534 24.5156C167.028 22.8474 167.609 20.9517 168.277 18.8285C168.974 16.7053 169.672 14.5518 170.369 12.3679C170.601 12.2162 170.877 12.1101 171.197 12.0494C171.516 11.9584 171.865 11.9129 172.243 11.9129C172.765 11.9129 173.201 12.0191 173.55 12.2314C173.898 12.4134 174.131 12.7015 174.247 13.0959C174.944 15.1887 175.598 17.2512 176.208 19.2834C176.818 21.2853 177.356 23.0748 177.82 24.6521C178.285 26.199 178.619 27.3515 178.823 28.1098H179.04C179.709 25.4103 180.435 22.5137 181.219 19.4199C182.004 16.3261 182.643 13.293 183.137 10.3205C183.543 10.0476 184.037 9.91107 184.618 9.91107C185.112 9.91107 185.504 10.0324 185.795 10.275C186.085 10.5177 186.231 10.8968 186.231 11.4125C186.231 11.7461 186.129 12.3831 185.926 13.3233C185.751 14.2636 185.504 15.3707 185.185 16.6446C184.865 17.9185 184.502 19.2834 184.095 20.7393C183.718 22.1649 183.326 23.5601 182.919 24.925C182.512 26.2596 182.12 27.4729 181.742 28.5648C181.394 29.6567 181.089 30.506 180.827 31.1126C180.682 31.234 180.435 31.3401 180.086 31.4311C179.767 31.5524 179.389 31.6131 178.953 31.6131C177.762 31.6131 177.065 31.3249 176.862 30.7487C176.455 29.6567 175.99 28.307 175.467 26.6994C174.944 25.0615 174.407 23.3023 173.855 21.4218C173.303 19.5109 172.751 17.6 172.199 15.6892Z" fill="#E69270"/>
<path d="M145.261 28.9739C146.481 28.9739 147.483 28.8526 148.267 28.6099C149.081 28.3369 149.662 28.0791 150.01 27.8365V21.2394L144.607 21.8309C143.096 21.9522 141.978 22.301 141.252 22.8773C140.525 23.4536 140.162 24.2877 140.162 25.3796C140.162 26.5019 140.583 27.3815 141.426 28.0184C142.297 28.6554 143.576 28.9739 145.261 28.9739ZM145.217 9.7287C147.744 9.7287 149.749 10.3202 151.231 11.5031C152.712 12.686 153.453 14.5514 153.453 17.0992V27.882C153.453 28.5492 153.322 29.0649 153.061 29.4289C152.828 29.7625 152.465 30.081 151.971 30.3843C151.274 30.7786 150.345 31.1426 149.182 31.4762C148.02 31.8099 146.713 31.9767 145.261 31.9767C142.53 31.9767 140.409 31.4156 138.898 30.2933C137.417 29.171 136.676 27.5483 136.676 25.4251C136.676 23.4536 137.301 21.9522 138.55 20.9209C139.828 19.8593 141.586 19.2224 143.823 19.0101L150.01 18.3731V17.0992C150.01 15.5826 149.575 14.4755 148.703 13.7779C147.832 13.0803 146.655 12.7315 145.173 12.7315C143.982 12.7315 142.835 12.9135 141.731 13.2775C140.656 13.6414 139.697 14.0509 138.855 14.5059C138.622 14.2936 138.405 14.0509 138.201 13.7779C138.027 13.4746 137.94 13.1713 137.94 12.868C137.94 12.0794 138.361 11.4727 139.203 11.0481C139.988 10.6235 140.888 10.305 141.905 10.0927C142.951 9.85002 144.055 9.7287 145.217 9.7287Z" fill="#E69270"/>
<path d="M117.911 18.3736H122.138C124.462 18.3736 126.263 17.8731 127.541 16.8722C128.82 15.8409 129.459 14.294 129.459 12.2315C129.459 10.169 128.834 8.66757 127.585 7.7273C126.365 6.7567 124.607 6.2714 122.312 6.2714C121.528 6.2714 120.744 6.3169 119.959 6.40789C119.204 6.46855 118.521 6.55955 117.911 6.68087V18.3736ZM122.356 21.4674H114.381V5.67994C114.381 5.19464 114.498 4.83066 114.73 4.58802C114.991 4.31503 115.355 4.10272 115.819 3.95106C116.662 3.67808 117.679 3.48093 118.87 3.3596C120.09 3.23827 121.266 3.17761 122.399 3.17761C126.089 3.17761 128.776 3.99656 130.461 5.63444C132.175 7.242 133.032 9.42585 133.032 12.186C133.032 14.0665 132.64 15.7044 131.856 17.0997C131.1 18.4949 129.938 19.5717 128.369 20.3299C126.801 21.0882 124.796 21.4674 122.356 21.4674ZM114.381 19.693H117.955V31.2492C117.78 31.3099 117.548 31.3705 117.257 31.4312C116.967 31.5222 116.647 31.5677 116.299 31.5677C115.66 31.5677 115.18 31.4312 114.861 31.1582C114.541 30.8852 114.381 30.4606 114.381 29.8843V19.693Z" fill="#E69270"/>
<path d="M97.6016 19.329H101.088V25.6076C101.088 26.8209 101.422 27.6853 102.09 28.2009C102.758 28.6862 103.673 28.9289 104.835 28.9289C105.329 28.9289 105.881 28.8379 106.491 28.6559C107.101 28.4739 107.61 28.2616 108.016 28.0189C108.191 28.2009 108.35 28.4284 108.496 28.7014C108.641 28.9744 108.714 29.2929 108.714 29.6568C108.714 30.3241 108.336 30.8701 107.581 31.2947C106.825 31.7194 105.779 31.9317 104.443 31.9317C102.41 31.9317 100.754 31.4615 99.4754 30.5213C98.2262 29.581 97.6016 28.0189 97.6016 25.8351V19.329ZM99.3882 13.7784V10.7756H108.234C108.321 10.8969 108.409 11.0941 108.496 11.3671C108.583 11.6401 108.626 11.9282 108.626 12.2315C108.626 12.7168 108.51 13.096 108.278 13.3689C108.045 13.6419 107.726 13.7784 107.319 13.7784H99.3882ZM101.088 20.6939H97.6016V4.22406C97.7468 4.1634 97.9647 4.10273 98.2552 4.04207C98.5748 3.95108 98.9089 3.90558 99.2575 3.90558C99.8675 3.90558 100.318 4.04207 100.608 4.31505C100.928 4.5577 101.088 4.96718 101.088 5.54347V20.6939Z" fill="#E69270"/>
<path d="M84.4051 14.2329V21.4214H80.9189V14.5059C80.9189 13.8083 81.0351 13.2623 81.2676 12.868C81.529 12.4433 81.9503 12.0339 82.5313 11.6396C83.2866 11.1239 84.3179 10.6841 85.6252 10.3202C86.9325 9.92585 88.3851 9.7287 89.9829 9.7287C92.3069 9.7287 93.469 10.3353 93.469 11.5486C93.469 11.8519 93.4254 12.14 93.3383 12.413C93.2511 12.6557 93.1349 12.868 92.9896 13.05C92.6991 12.9893 92.3215 12.9286 91.8566 12.868C91.3918 12.8073 90.927 12.777 90.4622 12.777C89.1259 12.777 87.9493 12.9286 86.9325 13.232C85.9157 13.5049 85.0732 13.8386 84.4051 14.2329ZM80.9189 19.3285L84.4051 19.8745V31.2487C84.2598 31.3094 84.0419 31.3701 83.7514 31.4307C83.4609 31.5217 83.1413 31.5672 82.7927 31.5672C82.1827 31.5672 81.7179 31.4459 81.3983 31.2032C81.0787 30.9303 80.9189 30.5056 80.9189 29.9293V19.3285Z" fill="#E69270"/>
<path d="M66.3634 28.9739C67.5835 28.9739 68.5858 28.8526 69.3702 28.6099C70.1836 28.3369 70.7646 28.0791 71.1132 27.8365V21.2394L65.7097 21.8309C64.1991 21.9522 63.0806 22.301 62.3543 22.8773C61.6281 23.4536 61.2649 24.2877 61.2649 25.3796C61.2649 26.5019 61.6862 27.3815 62.5286 28.0184C63.4002 28.6554 64.6784 28.9739 66.3634 28.9739ZM66.3198 9.7287C68.8472 9.7287 70.8518 10.3202 72.3334 11.5031C73.815 12.686 74.5558 14.5514 74.5558 17.0992V27.882C74.5558 28.5492 74.425 29.0649 74.1636 29.4289C73.9312 29.7625 73.568 30.081 73.0742 30.3843C72.3769 30.7786 71.4473 31.1426 70.2853 31.4762C69.1232 31.8099 67.8159 31.9767 66.3634 31.9767C63.6326 31.9767 61.5119 31.4156 60.0012 30.2933C58.5196 29.171 57.7788 27.5483 57.7788 25.4251C57.7788 23.4536 58.4034 21.9522 59.6526 20.9209C60.9308 19.8593 62.6884 19.2224 64.9254 19.0101L71.1132 18.3731V17.0992C71.1132 15.5826 70.6775 14.4755 69.8059 13.7779C68.9344 13.0803 67.7578 12.7315 66.2762 12.7315C65.0851 12.7315 63.9376 12.9135 62.8337 13.2775C61.7588 13.6414 60.8001 14.0509 59.9576 14.5059C59.7252 14.2936 59.5073 14.0509 59.304 13.7779C59.1297 13.4746 59.0425 13.1713 59.0425 12.868C59.0425 12.0794 59.4638 11.4727 60.3062 11.0481C61.0906 10.6235 61.9912 10.305 63.008 10.0927C64.0538 9.85002 65.1578 9.7287 66.3198 9.7287Z" fill="#E69270"/>
<path d="M39.8512 16.7807V22.0129H36.3651V17.0537C36.3651 15.5675 35.9438 14.4755 35.1014 13.7779C34.2879 13.0803 33.1985 12.7315 31.8331 12.7315C30.9325 12.7315 30.061 12.8831 29.2185 13.1865C28.3761 13.4898 27.6643 13.8386 27.0833 14.2329V22.0129H23.5972V14.4149C23.5972 13.8083 23.7134 13.2926 23.9458 12.868C24.2072 12.4433 24.643 12.0339 25.2531 11.6396C26.0375 11.1239 27.0252 10.6841 28.2163 10.3202C29.4364 9.92585 30.6566 9.7287 31.8767 9.7287C33.3583 9.7287 34.6656 9.97135 35.7986 10.4566C36.9316 10.9116 37.7741 11.5486 38.326 12.3675C38.5003 12.5495 38.6456 12.7163 38.7618 12.868C38.878 13.0196 38.9942 13.2168 39.1104 13.4594C39.3138 13.8234 39.4881 14.2936 39.6333 14.8698C39.7786 15.4461 39.8512 16.0831 39.8512 16.7807ZM52.6191 16.8717V22.0129H49.133V17.0537C49.133 15.5675 48.7263 14.4755 47.9129 13.7779C47.0994 13.0803 46.01 12.7315 44.6446 12.7315C43.6278 12.7315 42.6401 12.959 41.6814 13.4139C40.7518 13.8386 39.9093 14.4604 39.154 15.2793L37.7595 12.6405C38.5149 11.8519 39.5026 11.1694 40.7227 10.5931C41.9429 10.0168 43.3373 9.7287 44.9061 9.7287C46.4748 9.7287 47.8257 9.98651 48.9587 10.5021C50.1207 11.0178 51.0213 11.8064 51.6604 12.868C52.2996 13.9296 52.6191 15.2642 52.6191 16.8717ZM23.5972 19.6015H27.0833V31.2487C26.938 31.3094 26.7202 31.3701 26.4296 31.4307C26.1391 31.5217 25.8196 31.5672 25.471 31.5672C24.8609 31.5672 24.3961 31.4459 24.0765 31.2032C23.7569 30.9303 23.5972 30.5056 23.5972 29.9293V19.6015ZM36.3651 19.6015H39.8512V31.2487C39.706 31.3094 39.4735 31.3701 39.154 31.4307C38.8635 31.5217 38.5584 31.5672 38.2389 31.5672C37.5998 31.5672 37.1204 31.4459 36.8009 31.2032C36.5103 30.9303 36.3651 30.5056 36.3651 29.9293V19.6015ZM49.133 19.6015H52.6191V31.2487C52.4739 31.3094 52.2415 31.3701 51.9219 31.4307C51.6314 31.5217 51.3264 31.5672 51.0068 31.5672C50.3677 31.5672 49.8883 31.4459 49.5688 31.2032C49.2783 30.9303 49.133 30.5056 49.133 29.9293V19.6015Z" fill="#E69270"/>
<path d="M8.84603 28.8376C10.7924 28.8376 12.2595 28.3826 13.2473 27.4727C14.264 26.5324 14.7724 25.3343 14.7724 23.8784C14.7724 22.6349 14.3802 21.6036 13.5959 20.7847C12.8405 19.9657 11.6349 19.3136 9.97902 18.8283L6.18786 17.6454C4.96772 17.2511 3.90736 16.7506 3.00678 16.144C2.1062 15.507 1.40897 14.7336 0.915106 13.8236C0.45029 12.8834 0.217883 11.7914 0.217883 10.5479C0.217883 8.21235 1.03131 6.39247 2.65817 5.08823C4.28502 3.75365 6.44932 3.08636 9.15107 3.08636C10.7198 3.08636 12.1143 3.26835 13.3344 3.63233C14.5836 3.96597 15.5568 4.40578 16.254 4.95174C16.9803 5.4977 17.3435 6.07399 17.3435 6.68062C17.3435 7.07493 17.2418 7.4389 17.0384 7.77255C16.8351 8.07586 16.5736 8.31851 16.254 8.5005C15.5278 7.89387 14.54 7.36308 13.2908 6.90811C12.0707 6.45314 10.7343 6.22565 9.2818 6.22565C7.59684 6.22565 6.26049 6.61996 5.27276 7.40857C4.28502 8.16685 3.79116 9.21328 3.79116 10.5479C3.79116 11.6095 4.13977 12.4739 4.83699 13.1412C5.56327 13.8085 6.72531 14.3848 8.32311 14.8701L10.9813 15.689C13.2763 16.3563 15.0775 17.3269 16.3848 18.6008C17.7211 19.8747 18.3893 21.6339 18.3893 23.8784C18.3893 26.2746 17.5468 28.2158 15.8618 29.7021C14.2059 31.1883 11.8673 31.9314 8.84603 31.9314C7.07392 31.9314 5.51969 31.7342 4.18334 31.3399C2.87605 30.9153 1.84474 30.3997 1.08941 29.793C0.363137 29.1561 0 28.5343 0 27.9277C0 27.412 0.145255 26.9874 0.435765 26.6538C0.755326 26.2898 1.11846 26.032 1.52518 25.8803C2.19335 26.5476 3.13751 27.2149 4.35765 27.8822C5.57779 28.5191 7.07392 28.8376 8.84603 28.8376Z" fill="#E69270"/>
<path d="M183.896 46.8079C184.313 47.0779 184.363 47.4453 184.047 47.9102C183.745 48.3601 183.422 48.4651 183.077 48.2251C182.546 47.8202 181.627 47.2578 180.32 46.538C179.802 46.2231 179.688 45.8706 179.975 45.4807C180.276 45.0758 180.671 45.0008 181.16 45.2558C182.323 45.8107 183.235 46.328 183.896 46.8079ZM182.862 53.0391C183.221 53.264 183.25 53.6089 182.948 54.0738C182.647 54.5387 182.295 54.6362 181.892 54.3663C181.246 53.8864 180.341 53.339 179.178 52.7241C178.704 52.4392 178.617 52.0943 178.919 51.6894C179.221 51.2845 179.637 51.2245 180.169 51.5094C181.433 52.1393 182.331 52.6492 182.862 53.0391ZM180.75 64.4216C180.478 64.8715 180.118 64.9015 179.673 64.5116C179.228 64.1366 179.127 63.7692 179.372 63.4093C180.377 61.9546 181.49 59.975 182.711 57.4706C182.984 56.9307 183.314 56.8482 183.702 57.2231C184.104 57.5981 184.191 58.018 183.961 58.4829C182.97 60.5974 181.9 62.577 180.75 64.4216ZM194.927 62.8694C195.2 62.8694 195.337 62.7269 195.337 62.442V58.5953C195.337 58.3104 195.2 58.1679 194.927 58.1679H187.99C187.717 58.1679 187.58 58.3104 187.58 58.5953V62.442C187.58 62.7269 187.717 62.8694 187.99 62.8694H194.927ZM198.31 52.0493C198.31 52.5892 198.073 52.8591 197.599 52.8591H192.32V56.5933H195.983C196.586 56.5933 196.888 56.9082 196.888 57.5381V63.4768C196.888 64.1066 196.586 64.4216 195.983 64.4216H186.977C186.374 64.4216 186.072 64.1066 186.072 63.4768V57.5381C186.072 56.9082 186.374 56.5933 186.977 56.5933H190.769V52.8591H185.189C184.715 52.8591 184.478 52.5892 184.478 52.0493C184.478 51.4944 184.715 51.217 185.189 51.217H190.769V47.5053C189.261 47.7602 187.911 47.9477 186.719 48.0677C186.23 48.1126 185.907 47.8952 185.749 47.4153C185.605 46.9354 185.85 46.6655 186.482 46.6055C190.719 46.1256 193.764 45.5407 195.617 44.8509C195.947 44.7309 196.321 44.8884 196.737 45.3233C197.168 45.7582 197.183 46.0431 196.78 46.1781C195.775 46.538 194.288 46.8979 192.32 47.2578V51.217H197.599C198.073 51.217 198.31 51.4944 198.31 52.0493Z" fill="#B6B6B6"/>
<path d="M167.715 62.8017H175.73C176.204 62.8017 176.441 63.0717 176.441 63.6115C176.441 64.1514 176.204 64.4214 175.73 64.4214H158.063C157.589 64.4214 157.352 64.1514 157.352 63.6115C157.352 63.0717 157.589 62.8017 158.063 62.8017H166.078V57.088H160.39C159.916 57.088 159.679 56.818 159.679 56.2782C159.679 55.7383 159.916 55.4683 160.39 55.4683H166.078V50.5644H161.015C160.311 52.0041 159.693 53.0539 159.162 53.7137C158.903 54.0586 158.53 54.0661 158.042 53.7362C157.553 53.4063 157.438 53.0838 157.697 52.7689C159.148 51.1643 160.261 48.8698 161.036 45.8854C161.209 45.2706 161.561 45.0231 162.092 45.1431C162.638 45.2631 162.839 45.5555 162.695 46.0204L161.704 48.9223H166.078V45.3455C166.078 44.8507 166.351 44.6032 166.897 44.6032C167.443 44.6032 167.715 44.8507 167.715 45.3455V48.9223H174.718C175.192 48.9223 175.429 49.1997 175.429 49.7546C175.429 50.2945 175.192 50.5644 174.718 50.5644H167.715V55.4683H173.921C174.395 55.4683 174.632 55.7383 174.632 56.2782C174.632 56.818 174.395 57.088 173.921 57.088H167.715V62.8017Z" fill="#B6B6B6"/>
<path d="M145.804 50.1368H149.38L150.436 47.8198H145.653C146.084 48.5547 146.285 48.9821 146.256 49.102C146.443 49.6419 146.292 49.9868 145.804 50.1368ZM149.596 58.505C149.869 58.505 150.005 58.3625 150.005 58.0776V57.2228C150.005 56.9378 149.869 56.7954 149.596 56.7954H147.032C146.759 56.7954 146.622 56.9378 146.622 57.2228V58.0776C146.622 58.3625 146.759 58.505 147.032 58.505H149.596ZM144.597 48.9221C144.367 48.3222 144.497 47.9548 144.985 47.8198H142.055C141.581 47.8198 141.344 47.5949 141.344 47.145C141.344 46.6951 141.581 46.4701 142.055 46.4701H147.247L146.709 45.5703C146.464 45.1654 146.551 44.8805 146.967 44.7155C147.398 44.5355 147.743 44.648 148.001 45.0529L148.885 46.4701H154.185C154.659 46.4701 154.896 46.6951 154.896 47.145C154.896 47.5949 154.659 47.8198 154.185 47.8198H151.47C151.829 47.9248 151.923 48.1423 151.75 48.4722L150.867 50.1368H153.237C153.84 50.1368 154.142 50.4517 154.142 51.0816L153.991 60.9569C153.905 61.1669 153.689 61.3544 153.345 61.5193C153.014 61.6693 152.476 61.7443 151.729 61.7443C151.054 61.7443 150.637 61.5043 150.479 61.0244C150.321 60.5295 150.465 60.2971 150.91 60.3271C151.111 60.3271 151.585 60.3271 152.332 60.3271C152.548 60.3121 152.655 60.1921 152.655 59.9672V51.8914C152.655 51.6065 152.519 51.464 152.246 51.464H148.906V52.9937H151.406C151.88 52.9937 152.117 53.1886 152.117 53.5786C152.117 53.9535 151.88 54.1409 151.406 54.1409H148.906V55.7381H150.285C150.889 55.7381 151.19 56.053 151.19 56.6829V58.6175C151.19 59.2473 150.889 59.5622 150.285 59.5622H146.342C145.739 59.5622 145.437 59.2473 145.437 58.6175V56.6829C145.437 56.053 145.739 55.7381 146.342 55.7381H147.678V54.1409H145.157C144.683 54.1409 144.446 53.9535 144.446 53.5786C144.446 53.1886 144.683 52.9937 145.157 52.9937H147.678V51.464H144.317C144.044 51.464 143.908 51.6065 143.908 51.8914V61.0919C143.908 61.5868 143.664 61.8343 143.175 61.8343C142.687 61.8343 142.443 61.5868 142.443 61.0919V51.0816C142.443 50.4517 142.744 50.1368 143.348 50.1368H145.093L144.597 48.9221ZM139.9 47.4824C140.202 47.8573 140.144 48.1947 139.728 48.4947C139.326 48.7946 138.981 48.7496 138.694 48.3597L136.862 45.9302C136.575 45.5553 136.625 45.2479 137.013 45.0079C137.415 44.753 137.767 44.813 138.069 45.1879L139.9 47.4824ZM137.897 55.0407C137.753 55.2207 137.818 55.3182 138.09 55.3332L140.267 55.5131C140.884 55.5581 141.128 55.9255 140.999 56.6154C140.841 57.8301 140.439 59.1798 139.793 60.6645C140.453 61.7443 141.401 62.4566 142.637 62.8015C143.886 63.1465 145.725 63.3189 148.152 63.3189C150.58 63.3189 152.749 63.2439 154.659 63.094C155.133 63.049 155.277 63.2889 155.09 63.8138C154.918 64.3537 154.602 64.6311 154.142 64.6461C152.461 64.7511 150.4 64.8036 147.958 64.8036C145.531 64.8036 143.656 64.6086 142.335 64.2187C141.013 63.8288 139.951 63.064 139.146 61.9242C138.356 63.3039 137.588 64.2487 136.841 64.7586C136.482 65.0435 136.123 64.9911 135.764 64.6011C135.419 64.2262 135.426 63.9038 135.785 63.6339C137.595 62.4491 138.809 60.3196 139.426 57.2453C139.512 56.8703 139.419 56.6829 139.146 56.6829H137.207C136.532 56.6829 136.273 56.7054 136.431 56.7504C136.101 56.9153 135.835 56.7429 135.634 56.233C135.448 55.7231 135.57 55.3707 136.001 55.1757L136.388 54.8158C136.834 54.3659 137.609 53.3236 138.715 51.689C138.959 51.3291 138.945 51.1491 138.672 51.1491H136.345C135.871 51.1491 135.634 50.9241 135.634 50.4742C135.634 50.0093 135.871 49.7769 136.345 49.7769L139.663 49.6644C140.137 49.6644 140.547 49.7544 140.891 49.9344C141.25 50.0993 141.25 50.4368 140.891 50.9466C139.714 52.6563 138.715 54.021 137.897 55.0407Z" fill="#B6B6B6"/>
<path d="M123.418 48.9673C123.691 49.2522 123.669 49.6122 123.353 50.0471C123.051 50.482 122.764 50.542 122.491 50.227C121.831 49.3422 120.624 48.2325 118.872 46.8978C117.636 48.5924 116.394 49.8746 115.144 50.7444C114.771 51.0144 114.448 50.9019 114.175 50.407C113.916 49.8971 113.981 49.5147 114.369 49.2597C114.957 48.8998 115.69 48.2625 116.566 47.3477C117.457 46.4329 118.046 45.683 118.333 45.0982C118.577 44.6932 118.922 44.5808 119.367 44.7607C119.827 44.9257 119.935 45.2181 119.69 45.638L119.647 45.7055C121.471 47.0402 122.728 48.1275 123.418 48.9673ZM120.94 62.9592C121.213 62.9592 121.349 62.8168 121.349 62.5318V59.3825C121.349 59.0976 121.213 58.9551 120.94 58.9551H117.126C116.853 58.9551 116.717 59.0976 116.717 59.3825V62.5318C116.717 62.8168 116.853 62.9592 117.126 62.9592H120.94ZM119.798 51.5992V53.8037H122.621C123.095 53.8037 123.332 54.0437 123.332 54.5236C123.332 54.9885 123.095 55.2209 122.621 55.2209H119.798V57.5379H121.974C122.577 57.5379 122.879 57.8529 122.879 58.4827V63.4316C122.879 64.0615 122.577 64.3764 121.974 64.3764H116.135C115.532 64.3764 115.23 64.0615 115.23 63.4316V58.4827C115.23 57.8529 115.532 57.5379 116.135 57.5379H118.29V55.2209H115.381C114.907 55.2209 114.67 54.9885 114.67 54.5236C114.67 54.0437 114.907 53.8037 115.381 53.8037H118.29V51.5992H116.717C116.243 51.5992 116.006 51.3668 116.006 50.9019C116.006 50.422 116.243 50.182 116.717 50.182H121.22C121.694 50.182 121.931 50.422 121.931 50.9019C121.931 51.3668 121.694 51.5992 121.22 51.5992H119.798ZM129.881 52.679L132.359 52.859C133.149 52.9039 133.336 53.4963 132.919 54.6361C132.531 55.7908 132.201 56.6081 131.928 57.088C131.813 57.343 131.54 57.418 131.109 57.313C130.679 57.193 130.549 56.9081 130.722 56.4582L131.454 54.5911C131.555 54.3361 131.469 54.2087 131.196 54.2087H129.106L128.933 64.3314C128.833 64.5714 128.639 64.7513 128.352 64.8713C127.949 65.0663 127.339 65.1563 126.52 65.1413C125.845 65.1563 125.429 64.9013 125.271 64.3764C125.127 63.8665 125.206 63.6116 125.508 63.6116C125.536 63.6266 126.104 63.6341 127.21 63.6341C127.353 63.6191 127.447 63.5891 127.49 63.5441C127.547 63.4991 127.576 63.4091 127.576 63.2742V54.2087H124.366C123.892 54.2087 123.655 53.9537 123.655 53.4438C123.655 52.9339 123.892 52.679 124.366 52.679H129.084C127.935 51.3893 126.721 50.362 125.443 49.5972C125.012 49.3122 124.976 49.0198 125.335 48.7199C125.694 48.4049 125.996 48.3299 126.24 48.4949C126.355 48.5399 126.958 48.9448 128.05 49.7096C128.826 49.0348 129.508 48.2925 130.097 47.4826C130.298 47.2277 130.262 47.1002 129.989 47.1002H125.055C124.581 47.1002 124.344 46.8528 124.344 46.3579C124.344 45.848 124.581 45.593 125.055 45.593L131.109 45.5031C131.583 45.5031 131.986 45.6305 132.316 45.8855C132.646 46.1254 132.668 46.4629 132.381 46.8978C131.591 48.1725 130.492 49.3947 129.084 50.5645C129.774 51.1793 130.104 51.5018 130.075 51.5317C130.406 51.9067 130.341 52.2891 129.881 52.679Z" fill="#B6B6B6"/>
<path d="M104.328 48.877H101.161C100.73 49.6718 100.35 50.2567 100.019 50.6316C99.7177 51.0215 99.3442 51.0815 98.8989 50.8116C98.468 50.5416 98.4034 50.2417 98.705 49.9118C99.7392 48.847 100.508 47.4673 101.01 45.7727C101.197 45.1878 101.535 44.9554 102.023 45.0753C102.511 45.1953 102.669 45.4802 102.497 45.9301L101.915 47.4148H104.328V45.3678C104.328 44.8729 104.587 44.6254 105.104 44.6254C105.636 44.6254 105.901 44.8729 105.901 45.3678V47.4148H110.038C110.512 47.4148 110.749 47.6623 110.749 48.1572C110.749 48.637 110.512 48.877 110.038 48.877H105.901V51.7339H110.9C111.374 51.7339 111.611 51.9813 111.611 52.4762C111.611 52.9561 111.374 53.196 110.9 53.196H99.0498C98.5758 53.196 98.3388 52.9561 98.3388 52.4762C98.3388 51.9813 98.5758 51.7339 99.0498 51.7339H104.328V48.877ZM101.98 56.3454C101.707 56.3454 101.571 56.4878 101.571 56.7728V59.5397C101.571 59.8246 101.707 59.9671 101.98 59.9671H108.185C108.458 59.9671 108.594 59.8246 108.594 59.5397V56.7728C108.594 56.4878 108.458 56.3454 108.185 56.3454H101.98ZM110.167 60.3945C110.167 61.0243 109.866 61.3393 109.262 61.3393H100.946C100.342 61.3393 100.041 61.0243 100.041 60.3945V55.8955C100.041 55.2656 100.342 54.9507 100.946 54.9507H109.262C109.866 54.9507 110.167 55.2656 110.167 55.8955V60.3945ZM96.809 47.5048C97.1107 47.8797 97.0532 48.2171 96.6367 48.5171C96.2345 48.817 95.8897 48.772 95.6025 48.3821L93.7496 45.9526C93.4623 45.5777 93.5126 45.2703 93.9004 45.0303C94.3026 44.7754 94.6545 44.8354 94.9561 45.2103L96.809 47.5048ZM96.5074 55.2656C96.9814 55.2656 97.3477 55.3181 97.6062 55.4231C97.8791 55.528 97.9653 55.858 97.8648 56.4128C97.6493 57.8225 97.2399 59.2172 96.6367 60.5969C97.2974 61.6917 98.2526 62.419 99.5022 62.7789C100.766 63.1389 102.612 63.3188 105.039 63.3188C107.467 63.3188 109.636 63.2438 111.546 63.0939C112.02 63.0489 112.171 63.2888 111.999 63.8137C111.826 64.3536 111.517 64.631 111.072 64.646C109.377 64.751 107.302 64.8035 104.846 64.8035C102.404 64.8035 100.522 64.601 99.2006 64.1961C97.8791 63.8062 96.8234 63.0264 96.0334 61.8566C95.2577 63.2513 94.4893 64.2111 93.728 64.736C93.3689 65.036 93.0098 64.991 92.6507 64.601C92.306 64.2261 92.3132 63.9037 92.6723 63.6338C94.4534 62.449 95.6384 60.3195 96.2273 57.2452C96.3135 56.8702 96.2201 56.6828 95.9472 56.6828H94.0943L93.3617 56.7503C93.017 56.9152 92.7441 56.7503 92.543 56.2554C92.3419 55.7455 92.4568 55.3856 92.8877 55.1756L93.254 54.8157C93.7424 54.2908 94.4965 53.2485 95.5163 51.6889C95.7461 51.329 95.7246 51.149 95.4517 51.149H93.254C92.78 51.149 92.543 50.924 92.543 50.4741C92.543 50.0092 92.78 49.7768 93.254 49.7768H96.8306L96.8952 49.7543C97.3692 49.6493 97.6924 49.6868 97.8648 49.8668C98.0515 50.0467 97.9653 50.4067 97.6062 50.9465C96.3997 52.7911 95.4373 54.1633 94.7191 55.0631C94.5898 55.2281 94.6617 55.3106 94.9346 55.3106L96.5074 55.2656Z" fill="#B6B6B6"/>
<path d="M71.0621 57.2678C70.9041 56.698 71.0477 56.353 71.493 56.2331L74.2293 55.4907V50.6993H71.73C71.256 50.6993 71.019 50.4368 71.019 49.912C71.019 49.3721 71.256 49.1021 71.73 49.1021H74.2293V45.3679C74.2293 44.8731 74.4878 44.6256 75.0049 44.6256C75.5364 44.6256 75.8021 44.8731 75.8021 45.3679V49.1021H78.0644C78.5384 49.1021 78.7754 49.3721 78.7754 49.912C78.7754 50.4368 78.5384 50.6993 78.0644 50.6993H75.8021V54.9958L78.129 54.2985C78.5743 54.1785 78.8257 54.381 78.8831 54.9059C78.9549 55.4157 78.7682 55.7382 78.3229 55.8731L75.8021 56.683L75.6297 63.9939C75.5148 64.2488 75.285 64.4588 74.9403 64.6237C74.5955 64.8037 73.9923 64.8862 73.1304 64.8712C72.441 64.8862 72.0101 64.6312 71.8377 64.1063C71.6653 63.5815 71.8018 63.3265 72.2471 63.3415C72.4913 63.3415 73.0084 63.3415 73.7984 63.3415C74.0856 63.3415 74.2293 63.1915 74.2293 62.8916V57.2004L71.967 57.8977C71.5217 58.0327 71.2201 57.8227 71.0621 57.2678ZM89.8067 46.4927C90.2807 46.4927 90.5177 46.7701 90.5177 47.325C90.5177 47.8649 90.2807 48.1348 89.8067 48.1348H86.7042V62.6891C86.7042 63.274 86.6252 63.7164 86.4672 64.0164C86.3092 64.3163 86.0362 64.5337 85.6484 64.6687C85.0882 64.8937 84.0612 64.9986 82.5674 64.9836C81.8636 64.9986 81.3968 64.7062 81.1669 64.1063C80.9515 63.5065 81.1957 63.2215 81.8995 63.2515C83.0773 63.2965 83.8889 63.304 84.3341 63.274C84.7938 63.244 85.0236 63.0416 85.0236 62.6667V48.1348H79.5941C79.1201 48.1348 78.8831 47.8649 78.8831 47.325C78.8831 46.7701 79.1201 46.4927 79.5941 46.4927H89.8067Z" fill="#B6B6B6"/>
<g clip-path="url(#clip0_2051_1451)">
<path d="M248.756 19.9653C250.26 19.9653 251.48 18.6921 251.48 17.1217C251.48 15.5512 250.26 14.2781 248.756 14.2781C247.252 14.2781 246.033 15.5512 246.033 17.1217C246.033 18.6921 247.252 19.9653 248.756 19.9653Z" fill="#E69270"/>
<path d="M253.659 15.4156C255.163 15.4156 256.382 14.1425 256.382 12.572C256.382 11.0016 255.163 9.72845 253.659 9.72845C252.155 9.72845 250.935 11.0016 250.935 12.572C250.935 14.1425 252.155 15.4156 253.659 15.4156Z" fill="#E69270"/>
<path d="M260.195 15.4156C261.699 15.4156 262.919 14.1425 262.919 12.572C262.919 11.0016 261.699 9.72845 260.195 9.72845C258.691 9.72845 257.472 11.0016 257.472 12.572C257.472 14.1425 258.691 15.4156 260.195 15.4156Z" fill="#E69270"/>
<path d="M265.098 19.9653C266.602 19.9653 267.821 18.6921 267.821 17.1217C267.821 15.5512 266.602 14.2781 265.098 14.2781C263.593 14.2781 262.374 15.5512 262.374 17.1217C262.374 18.6921 263.593 19.9653 265.098 19.9653Z" fill="#E69270"/>
<path d="M262.744 23.2183C261.797 22.0581 261.001 21.0685 260.043 19.9084C259.542 19.2941 258.899 18.6799 258.136 18.407C258.016 18.3615 257.897 18.3273 257.777 18.3046C257.504 18.2591 257.21 18.2591 256.927 18.2591C256.644 18.2591 256.35 18.2591 256.066 18.316C255.946 18.3387 255.827 18.3728 255.707 18.4183C254.944 18.6913 254.312 19.3055 253.8 19.9197C252.853 21.0799 252.057 22.0695 251.099 23.2296C249.671 24.7197 247.918 26.3689 248.244 28.6779C248.56 29.8381 249.356 30.9868 250.783 31.3167C251.578 31.4873 254.116 30.8162 256.818 30.8162H257.014C259.716 30.8162 262.254 31.4759 263.049 31.3167C264.477 30.9868 265.272 29.8267 265.588 28.6779C265.926 26.3575 264.172 24.7083 262.744 23.2183Z" fill="#E69270"/>
</g>
<path d="M43 56H58" stroke="#B6B6B6"/>
<path d="M209 56H224" stroke="#B6B6B6"/>
<defs>
<clipPath id="clip0_2051_1451">
<rect width="26.1459" height="27.2981" fill="white" transform="translate(243.854 6.31616)"/>
</clipPath>
</defs>
</svg>
